<?xml version="1.0" encoding="UTF-8" standalone="no"?>
<svg
   xmlns:dc="http://purl.org/dc/elements/1.1/"
   xmlns:cc="http://creativecommons.org/ns#"
   xmlns:rdf="http://www.w3.org/1999/02/22-rdf-syntax-ns#"
   xmlns:svg="http://www.w3.org/2000/svg"
   xmlns="http://www.w3.org/2000/svg"
   style="enable-background:new"
   version="1.1"
   id="svg4306"
   height="24"
   width="24">
  <defs
     id="defs4308" />
  <metadata
     id="metadata4311">
    <rdf:RDF>
      <cc:Work
         rdf:about="">
        <dc:format>image/svg+xml</dc:format>
        <dc:type
           rdf:resource="http://purl.org/dc/dcmitype/StillImage" />
        <dc:title />
      </cc:Work>
    </rdf:RDF>
  </metadata>
  <g
     transform="translate(0,-1028.3622)"
     id="layer1">
    <g
       transform="translate(-437,1218)"
       id="titlebutton-close-active"
       style="display:inline">
      <g
         transform="translate(-882,-432.63782)"
         style="display:inline;opacity:1"
         id="g4927-8-7">
        <g
           id="g4490-6-3-7"
           style="display:inline;opacity:1"
           transform="translate(-103,0)">
          <g
             transform="translate(58,0)"
             style="display:inline"
             id="g4092-0-2-2-1">
            <circle
               id="path4068-7-5-4-9"
               style="fill:#f13039;fill-opacity:1;stroke:none;stroke-width:0;stroke-linecap:butt;stroke-linejoin:miter;stroke-miterlimit:4;stroke-dasharray:none;stroke-dashoffset:0;stroke-opacity:1"
               cx="1376"
               cy="255"
               r="7" />
          </g>
        </g>
        <g
           style="fill:#fdf6e3;fill-opacity:1"
           transform="translate(1323,246.86719)"
           id="g4778-3-6">
          <g
             transform="translate(-60,-518)"
             id="layer9-9-6-0"
             style="display:inline;fill:#fdf6e3;fill-opacity:1" />
          <g
             style="fill:#fdf6e3;fill-opacity:1"
             transform="translate(-60,-518)"
             id="layer10-2-3-6" />
          <g
             style="fill:#fdf6e3;fill-opacity:1"
             transform="translate(-60,-518)"
             id="layer11-16-2-2" />
          <g
             style="fill:#fdf6e3;fill-opacity:1"
             id="g2996-7-0"
             transform="matrix(0.75,0,0,0.75,2,2.0546875)">
            <g
               style="fill:#fdf6e3;fill-opacity:1"
               id="layer12-4-6-3"
               transform="translate(-60,-518)">
              <g
                 style="display:inline;fill:#fdf6e3;fill-opacity:1"
                 id="layer4-4-1-4-1"
                 transform="translate(19,-242)">
                <path
                   style="color:#657b83;font-style:normal;font-variant:normal;font-weight:normal;font-stretch:normal;font-size:medium;line-height:normal;font-family:'Andale Mono';-inkscape-font-specification:'Andale Mono';text-indent:0;text-align:start;text-decoration:none;text-decoration-line:none;letter-spacing:normal;word-spacing:normal;text-transform:none;direction:ltr;block-progression:tb;writing-mode:lr-tb;text-anchor:start;display:inline;overflow:visible;visibility:visible;fill:#fdf6e3;fill-opacity:1;fill-rule:nonzero;stroke:none;stroke-width:1.78124988;marker:none;enable-background:new"
                   id="path10839-9-8-7"
                   d="m 45.001573,764.10442 1,0 c 0.01037,-1.2e-4 0.02079,-4.6e-4 0.03125,0 0.254951,0.0112 0.50987,0.12858 0.6875,0.3125 l 2.28125,2.28125 2.3125,-2.28125 c 0.265625,-0.2305 0.446672,-0.3055 0.6875,-0.3125 l 1,0 0,1 c 0,0.28647 -0.03434,0.55065 -0.25,0.75 l -2.28125,2.28125 2.25,2.25 c 0.188188,0.18817 0.281242,0.45345 0.28125,0.71875 l 0,1 -1,0 c -0.265301,-10e-6 -0.530586,-0.0931 -0.71875,-0.28125 l -2.28125,-2.28125 -2.28125,2.28125 c -0.188164,0.18819 -0.45346,0.28125 -0.71875,0.28125 l -1,0 0,-1 c -3e-6,-0.26529 0.09306,-0.53058 0.28125,-0.71875 l 2.28125,-2.25 -2.28125,-2.28125 c -0.210742,-0.19463 -0.30316,-0.46925 -0.28125,-0.75 l 0,-1 z" />
              </g>
            </g>
          </g>
          <g
             style="fill:#fdf6e3;fill-opacity:1"
             transform="translate(-60,-518)"
             id="layer13-2-0-2" />
          <g
             style="fill:#fdf6e3;fill-opacity:1"
             transform="translate(-60,-518)"
             id="layer14-4-4-0" />
          <g
             style="fill:#fdf6e3;fill-opacity:1"
             transform="translate(-60,-518)"
             id="layer15-7-5-0" />
        </g>
      </g>
      <rect
         style="display:inline;opacity:1;fill:none;fill-opacity:1;stroke:none;stroke-width:1;stroke-linecap:butt;stroke-linejoin:miter;stroke-miterlimit:4;stroke-dasharray:none;stroke-dashoffset:0;stroke-opacity:0"
         id="rect17883-02"
         width="16"
         height="16"
         x="441"
         y="-185.63782" />
    </g>
  </g>
</svg>
