<?xml version="1.0" encoding="UTF-8" standalone="no"?>
<svg
   xmlns:dc="http://purl.org/dc/elements/1.1/"
   xmlns:cc="http://creativecommons.org/ns#"
   xmlns:rdf="http://www.w3.org/1999/02/22-rdf-syntax-ns#"
   xmlns:svg="http://www.w3.org/2000/svg"
   xmlns="http://www.w3.org/2000/svg"
   xmlns:xlink="http://www.w3.org/1999/xlink"
   style="display:inline"
   height="32"
   width="512"
   version="1.1"
   id="svg5369">
  <metadata
     id="metadata5375">
    <rdf:RDF>
      <cc:Work
         rdf:about="">
        <dc:format>image/svg+xml</dc:format>
        <dc:type
           rdf:resource="http://purl.org/dc/dcmitype/StillImage" />
        <dc:title />
      </cc:Work>
    </rdf:RDF>
  </metadata>
  <defs
     id="defs5373">
    <linearGradient
       id="linearGradient8231-1-4-4-1">
      <stop
         style="stop-color:#fdf6e3;stop-opacity:0"
         offset="0"
         id="stop8233-28-5-27-1" />
      <stop
         id="stop8235-7-3-94-3"
         offset="0.31861392"
         style="stop-color:#fdf6e3;stop-opacity:0.15428571" />
      <stop
         style="stop-color:#fdf6e3;stop-opacity:0.33714285"
         offset="0.54270232"
         id="stop8237-7-8-20-2" />
      <stop
         style="stop-color:#fdf6e3;stop-opacity:1"
         offset="1"
         id="stop8239-2-9-1-9" />
    </linearGradient>
    <linearGradient
       id="linearGradient5767-6">
      <stop
         style="stop-color:#657b83;stop-opacity:0"
         offset="0"
         id="stop5769-0" />
      <stop
         id="stop5771-1"
         offset="0.31861392"
         style="stop-color:#fdf6e3;stop-opacity:0" />
      <stop
         style="stop-color:#fdf6e3;stop-opacity:0.42857143"
         offset="0.75051737"
         id="stop5773-7" />
      <stop
         style="stop-color:#fdf6e3;stop-opacity:1"
         offset="1"
         id="stop5775-8" />
    </linearGradient>
    <radialGradient
       r="27.330345"
       fy="188.51917"
       fx="-0.067823187"
       cy="188.51917"
       cx="-0.067823187"
       gradientTransform="matrix(2.229454,-1.2865389,1.2087442,2.0939897,-228.90301,-208.08725)"
       gradientUnits="userSpaceOnUse"
       id="radialGradient11663"
       xlink:href="#linearGradient8231-1-4-4-1" />
    <radialGradient
       r="27.330345"
       fy="189.15244"
       fx="0.053942412"
       cy="189.15244"
       cx="0.053942412"
       gradientTransform="matrix(1.1252013,-0.60470548,0.56813832,1.0568583,-107.67128,-11.948108)"
       gradientUnits="userSpaceOnUse"
       id="radialGradient11665"
       xlink:href="#linearGradient5767-6" />
    <radialGradient
       r="27.330345"
       fy="188.51917"
       fx="-0.067823187"
       cy="188.51917"
       cx="-0.067823187"
       gradientTransform="matrix(2.229454,-1.2865389,1.2087442,2.0939897,-228.90301,-208.08725)"
       gradientUnits="userSpaceOnUse"
       id="radialGradient18026"
       xlink:href="#linearGradient8231-1-4-4-1" />
    <radialGradient
       r="27.330345"
       fy="189.15244"
       fx="0.053942412"
       cy="189.15244"
       cx="0.053942412"
       gradientTransform="matrix(1.1252013,-0.60470548,0.56813832,1.0568583,-107.67128,-11.948108)"
       gradientUnits="userSpaceOnUse"
       id="radialGradient18028"
       xlink:href="#linearGradient5767-6" />
  </defs>
  <g
     transform="translate(0,-16)"
     style="display:none"
     id="layer1">
    <rect
       y="0"
       x="0"
       height="24"
       width="24"
       id="rect12451"
       style="color:#000000;display:inline;overflow:visible;visibility:visible;fill:#000000;fill-opacity:1;fill-rule:nonzero;stroke:none;stroke-width:1;marker:none;enable-background:accumulate" />
    <rect
       style="color:#000000;display:inline;overflow:visible;visibility:visible;fill:#000000;fill-opacity:1;fill-rule:nonzero;stroke:none;stroke-width:1;marker:none;enable-background:accumulate"
       id="rect12453"
       width="24"
       height="24"
       x="0"
       y="24" />
    <rect
       style="color:#000000;display:inline;overflow:visible;visibility:visible;fill:#000000;fill-opacity:1;fill-rule:nonzero;stroke:none;stroke-width:1;marker:none;enable-background:accumulate"
       id="rect12455"
       width="24"
       height="24"
       x="24"
       y="0" />
    <rect
       y="24"
       x="24"
       height="24"
       width="24"
       id="rect12457"
       style="color:#000000;display:inline;overflow:visible;visibility:visible;fill:#000000;fill-opacity:1;fill-rule:nonzero;stroke:none;stroke-width:1;marker:none;enable-background:accumulate" />
    <rect
       y="0"
       x="48"
       height="24"
       width="24"
       id="rect12459"
       style="color:#000000;display:inline;overflow:visible;visibility:visible;fill:#000000;fill-opacity:1;fill-rule:nonzero;stroke:none;stroke-width:1;marker:none;enable-background:accumulate" />
    <rect
       style="color:#000000;display:inline;overflow:visible;visibility:visible;fill:#000000;fill-opacity:1;fill-rule:nonzero;stroke:none;stroke-width:1;marker:none;enable-background:accumulate"
       id="rect12461"
       width="24"
       height="24"
       x="48"
       y="24" />
    <rect
       style="color:#000000;display:inline;overflow:visible;visibility:visible;fill:#000000;fill-opacity:1;fill-rule:nonzero;stroke:none;stroke-width:1;marker:none;enable-background:accumulate"
       id="rect12463"
       width="24"
       height="24"
       x="72"
       y="0" />
    <rect
       y="24"
       x="72"
       height="24"
       width="24"
       id="rect12465"
       style="color:#000000;display:inline;overflow:visible;visibility:visible;fill:#000000;fill-opacity:1;fill-rule:nonzero;stroke:none;stroke-width:1;marker:none;enable-background:accumulate" />
  </g>
  <g
     transform="translate(0,-16)"
     id="layer2">
    <g
       transform="matrix(0.29521872,0,0,0.2952381,149.03971,-388.51498)"
       id="g12246"
       style="display:inline">
      <path
         style="display:inline;fill:none;stroke:url(#radialGradient11663);stroke-width:17.83196449;stroke-linecap:round;stroke-miterlimit:4;stroke-dasharray:none;stroke-dashoffset:0;stroke-opacity:1"
         id="path12248"
         d="m -3.4436513,184.72075 a 22.98097,22.98097 0 0 1 -25.9046347,17.42496 22.98097,22.98097 0 0 1 -19.37345,-24.4816 22.98097,22.98097 0 0 1 22.91234,-21.20622"
         transform="matrix(-0.16397381,0.61157081,-0.61162275,-0.16377992,-372.32298,1442.5061)" />
      <path
         transform="matrix(-0.63300818,0.01438356,-0.01458424,-0.63300359,-491.4014,1510.996)"
         d="m -3.4436513,184.72075 a 22.98097,22.98097 0 0 1 -25.9046347,17.42496 22.98097,22.98097 0 0 1 -19.37345,-24.4816 22.98097,22.98097 0 0 1 22.91234,-21.20622"
         id="path12250"
         style="display:inline;fill:none;stroke:url(#radialGradient11665);stroke-width:17.83196449;stroke-linecap:butt;stroke-miterlimit:4;stroke-dasharray:none;stroke-dashoffset:0;stroke-opacity:1" />
    </g>
    <use
       x="0"
       y="0"
       xlink:href="#g10450-5"
       id="use12258"
       transform="matrix(0.9945219,0.10452846,-0.10452846,0.9945219,48.943073,-180.55304)"
       width="100%"
       height="100%" />
    <use
       x="0"
       y="0"
       xlink:href="#use12000"
       id="use12260"
       transform="matrix(0.97814761,0.20791169,-0.20791169,0.97814761,70.553652,-185.80321)"
       width="100%"
       height="100%" />
    <use
       x="0"
       y="0"
       xlink:href="#g10450-5"
       id="use12266"
       transform="matrix(0.95105653,0.30901699,-0.30901699,0.95105653,146.76602,-177.21804)"
       width="100%"
       height="100%" />
    <use
       x="0"
       y="0"
       xlink:href="#use12000"
       id="use12270"
       transform="matrix(0.91354547,0.40673664,-0.40673664,0.91354547,169.60833,-183.68101)"
       width="100%"
       height="100%" />
    <use
       x="0"
       y="0"
       xlink:href="#use12002"
       id="use12272"
       transform="matrix(0.86602542,0.5,-0.5,0.86602542,194.48539,-193.2587)"
       width="100%"
       height="100%" />
    <use
       x="0"
       y="0"
       xlink:href="#g10450-5"
       id="use12278"
       transform="matrix(0.80901701,0.58778525,-0.58778525,0.80901701,289.93475,-156.19404)"
       width="100%"
       height="100%" />
    <use
       x="0"
       y="0"
       xlink:href="#use12000"
       id="use12282"
       transform="matrix(0.74314484,0.66913061,-0.66913061,0.74314484,315.02774,-163.93338)"
       width="100%"
       height="100%" />
    <use
       x="0"
       y="0"
       xlink:href="#use12002"
       id="use12284"
       transform="matrix(0.66913062,0.74314483,-0.74314483,0.66913062,343.01848,-174.00634)"
       width="100%"
       height="100%" />
    <use
       x="0"
       y="0"
       xlink:href="#use12008"
       id="use12290"
       transform="matrix(0.58778527,0.809017,-0.809017,0.58778527,374.34035,-185.86931)"
       width="100%"
       height="100%" />
    <use
       height="100%"
       width="100%"
       transform="matrix(0.9945219,0.10452846,-0.10452846,0.9945219,31.624213,-28.945572)"
       id="use12494"
       xlink:href="#use12290"
       y="0"
       x="0" />
    <use
       height="100%"
       width="100%"
       transform="matrix(0.9945219,0.10452846,-0.10452846,0.9945219,31.778114,-31.872282)"
       id="use12498"
       xlink:href="#use12494"
       y="0"
       x="0" />
    <use
       height="100%"
       width="100%"
       transform="matrix(0.9945219,0.10452846,-0.10452846,0.9945219,31.931711,-34.799662)"
       id="use12502"
       xlink:href="#use12498"
       y="0"
       x="0" />
    <use
       height="100%"
       width="100%"
       transform="matrix(0.9945219,0.10452846,-0.10452846,0.9945219,32.085178,-37.729332)"
       id="use12506"
       xlink:href="#use12502"
       y="0"
       x="0" />
    <use
       height="100%"
       width="100%"
       transform="matrix(0.9945219,0.10452846,-0.10452846,0.9945219,32.238466,-40.661342)"
       id="use12510"
       xlink:href="#use12506"
       y="0"
       x="0" />
    <use
       height="100%"
       width="100%"
       transform="matrix(0.9945219,0.10452846,-0.10452846,0.9945219,32.390823,-43.585942)"
       id="use12514"
       xlink:href="#use12510"
       y="0"
       x="0" />
    <use
       height="100%"
       width="100%"
       transform="matrix(0.9945219,0.10452846,-0.10452846,0.9945219,32.543439,-46.510902)"
       id="use12518"
       xlink:href="#use12514"
       y="0"
       x="0" />
    <use
       height="100%"
       width="100%"
       transform="matrix(0.9945219,0.10452846,-0.10452846,0.9945219,32.696338,-49.437422)"
       id="use12522"
       xlink:href="#use12518"
       y="0"
       x="0" />
    <use
       height="100%"
       width="100%"
       transform="matrix(0.9945219,0.10452846,-0.10452846,0.9945219,32.849272,-52.363942)"
       id="use12526"
       xlink:href="#use12522"
       y="0"
       x="0" />
    <use
       height="100%"
       width="100%"
       transform="matrix(0.9945219,0.10452846,-0.10452846,0.9945219,33.002239,-55.290422)"
       id="use12530"
       xlink:href="#use12526"
       y="0"
       x="0" />
    <use
       height="100%"
       width="100%"
       transform="matrix(0.9945219,0.10452846,-0.10452846,0.9945219,33.155242,-58.216862)"
       id="use12534"
       xlink:href="#use12530"
       y="0"
       x="0" />
    <use
       height="100%"
       width="100%"
       transform="matrix(0.9945219,0.10452846,-0.10452846,0.9945219,33.308287,-61.143262)"
       id="use12538"
       xlink:href="#use12534"
       y="0"
       x="0" />
    <use
       height="100%"
       width="100%"
       transform="matrix(0.9945219,0.10452846,-0.10452846,0.9945219,33.461378,-64.069632)"
       id="use12542"
       xlink:href="#use12538"
       y="0"
       x="0" />
    <use
       height="100%"
       width="100%"
       transform="matrix(0.9945219,0.10452846,-0.10452846,0.9945219,33.614517,-66.995962)"
       id="use12546"
       xlink:href="#use12542"
       y="0"
       x="0" />
    <use
       height="100%"
       width="100%"
       transform="matrix(0.9945219,0.10452846,-0.10452846,0.9945219,33.767708,-69.922282)"
       id="use12550"
       xlink:href="#use12546"
       y="0"
       x="0" />
    <use
       height="100%"
       width="100%"
       transform="matrix(0.9945219,0.10452846,-0.10452846,0.9945219,33.920952,-72.848572)"
       id="use12554"
       xlink:href="#use12550"
       y="0"
       x="0" />
    <use
       height="100%"
       width="100%"
       transform="matrix(0.9945219,0.10452846,-0.10452846,0.9945219,34.074252,-75.774862)"
       id="use12558"
       xlink:href="#use12554"
       y="0"
       x="0" />
    <use
       height="100%"
       width="100%"
       transform="matrix(0.9945219,0.10452846,-0.10452846,0.9945219,34.228224,-78.701442)"
       id="use12562"
       xlink:href="#use12558"
       y="0"
       x="0" />
    <use
       height="100%"
       width="100%"
       transform="matrix(0.9945219,0.10452846,-0.10452846,0.9945219,34.384481,-81.628162)"
       id="use12566"
       xlink:href="#use12562"
       y="0"
       x="0" />
    <use
       height="100%"
       width="100%"
       transform="matrix(0.9945219,0.10452846,-0.10452846,0.9945219,34.543085,-84.555062)"
       id="use12570"
       xlink:href="#use12566"
       y="0"
       x="0" />
    <use
       height="100%"
       width="100%"
       transform="matrix(0.9945219,0.10452846,-0.10452846,0.9945219,34.694273,-87.482889)"
       id="use12574"
       xlink:href="#use12570"
       y="0"
       x="0" />
    <use
       height="100%"
       width="100%"
       transform="matrix(0.9945219,0.10452846,-0.10452846,0.9945219,34.845821,-90.410449)"
       id="use12578"
       xlink:href="#use12574"
       y="0"
       x="0" />
    <use
       height="100%"
       width="100%"
       transform="matrix(0.9945219,0.10452846,-0.10452846,0.9945219,34.998931,-93.337739)"
       id="use12582"
       xlink:href="#use12578"
       y="0"
       x="0" />
    <use
       height="100%"
       width="100%"
       transform="matrix(0.9945219,0.10452846,-0.10452846,0.9945219,35.152046,-96.264989)"
       id="use12586"
       xlink:href="#use12582"
       y="0"
       x="0" />
    <use
       height="100%"
       width="100%"
       transform="matrix(0.9945219,0.10452846,-0.10452846,0.9945219,35.305116,-99.192209)"
       id="use12590"
       xlink:href="#use12586"
       y="0"
       x="0" />
    <use
       height="100%"
       width="100%"
       transform="matrix(0.9945219,0.10452846,-0.10452846,0.9945219,35.458143,-102.11938)"
       id="use12594"
       xlink:href="#use12590"
       y="0"
       x="0" />
    <use
       height="100%"
       width="100%"
       transform="matrix(0.9945219,0.10452846,-0.10452846,0.9945219,35.611131,-105.04652)"
       id="use12598"
       xlink:href="#use12594"
       y="0"
       x="0" />
    <use
       height="100%"
       width="100%"
       transform="matrix(0.9945219,0.10452846,-0.10452846,0.9945219,35.764086,-107.97361)"
       id="use12602"
       xlink:href="#use12598"
       y="0"
       x="0" />
    <use
       height="100%"
       width="100%"
       transform="matrix(0.9945219,0.10452846,-0.10452846,0.9945219,35.917013,-110.90066)"
       id="use12606"
       xlink:href="#use12602"
       y="0"
       x="0" />
    <use
       height="100%"
       width="100%"
       transform="matrix(0.9945219,0.10452846,-0.10452846,0.9945219,36.069915,-113.82765)"
       id="use12610"
       xlink:href="#use12606"
       y="0"
       x="0" />
    <use
       height="100%"
       width="100%"
       transform="matrix(0.9945219,0.10452846,-0.10452846,0.9945219,36.2228,-116.75459)"
       id="use12614"
       xlink:href="#use12610"
       y="0"
       x="0" />
    <use
       height="100%"
       width="100%"
       transform="matrix(0.9945219,0.10452846,-0.10452846,0.9945219,36.375673,-119.68147)"
       id="use12618"
       xlink:href="#use12614"
       y="0"
       x="0" />
    <use
       height="100%"
       width="100%"
       transform="matrix(0.9945219,0.10452846,-0.10452846,0.9945219,36.52885,-122.60769)"
       id="use12622"
       xlink:href="#use12618"
       y="0"
       x="0" />
    <use
       height="100%"
       width="100%"
       transform="matrix(0.9945219,0.10452846,-0.10452846,0.9945219,36.682157,-125.53161)"
       id="use12626"
       xlink:href="#use12622"
       y="0"
       x="0" />
    <use
       height="100%"
       width="100%"
       transform="matrix(0.9945219,0.10452846,-0.10452846,0.9945219,36.835642,-128.45319)"
       id="use12630"
       xlink:href="#use12626"
       y="0"
       x="0" />
    <use
       height="100%"
       width="100%"
       transform="matrix(0.9945219,0.10452846,-0.10452846,0.9945219,36.990059,-131.38219)"
       id="use12634"
       xlink:href="#use12630"
       y="0"
       x="0" />
    <use
       height="100%"
       width="100%"
       transform="matrix(0.9945219,0.10452846,-0.10452846,0.9945219,37.144216,-134.31083)"
       id="use12638"
       xlink:href="#use12634"
       y="0"
       x="0" />
    <use
       height="100%"
       width="100%"
       transform="matrix(0.9945219,0.10452846,-0.10452846,0.9945219,37.298091,-137.2379)"
       id="use12642"
       xlink:href="#use12638"
       y="0"
       x="0" />
    <use
       height="100%"
       width="100%"
       transform="matrix(0.9945219,0.10452846,-0.10452846,0.9945219,37.45193,-140.16497)"
       id="use12646"
       xlink:href="#use12642"
       y="0"
       x="0" />
    <use
       height="100%"
       width="100%"
       transform="matrix(0.9945219,0.10452846,-0.10452846,0.9945219,37.605737,-143.09209)"
       id="use12650"
       xlink:href="#use12646"
       y="0"
       x="0" />
    <use
       height="100%"
       width="100%"
       transform="matrix(0.9945219,0.10452846,-0.10452846,0.9945219,37.759507,-146.01924)"
       id="use12654"
       xlink:href="#use12650"
       y="0"
       x="0" />
    <use
       height="100%"
       width="100%"
       transform="matrix(0.9945219,0.10452846,-0.10452846,0.9945219,37.913236,-148.94644)"
       id="use12658"
       xlink:href="#use12654"
       y="0"
       x="0" />
    <use
       height="100%"
       width="100%"
       transform="matrix(0.9945219,0.10452846,-0.10452846,0.9945219,38.066918,-151.87367)"
       id="use12662"
       xlink:href="#use12658"
       y="0"
       x="0" />
    <use
       height="100%"
       width="100%"
       transform="matrix(0.9945219,0.10452846,-0.10452846,0.9945219,38.220552,-154.80093)"
       id="use12666"
       xlink:href="#use12662"
       y="0"
       x="0" />
    <use
       height="100%"
       width="100%"
       transform="matrix(0.9945219,0.10452846,-0.10452846,0.9945219,38.374134,-157.72821)"
       id="use12670"
       xlink:href="#use12666"
       y="0"
       x="0" />
    <use
       height="100%"
       width="100%"
       transform="matrix(0.9945219,0.10452846,-0.10452846,0.9945219,38.527663,-160.65551)"
       id="use12674"
       xlink:href="#use12670"
       y="0"
       x="0" />
    <use
       height="100%"
       width="100%"
       transform="matrix(0.9945219,0.10452846,-0.10452846,0.9945219,38.681136,-163.58282)"
       id="use12678"
       xlink:href="#use12674"
       y="0"
       x="0" />
    <use
       height="100%"
       width="100%"
       transform="matrix(0.9945219,0.10452846,-0.10452846,0.9945219,38.833937,-166.50983)"
       id="use12682"
       xlink:href="#use12678"
       y="0"
       x="0" />
    <use
       height="100%"
       width="100%"
       transform="matrix(0.9945219,0.10452846,-0.10452846,0.9945219,38.984453,-169.4367)"
       id="use12686"
       xlink:href="#use12682"
       y="0"
       x="0" />
    <use
       height="100%"
       width="100%"
       transform="matrix(0.9945219,0.10452846,-0.10452846,0.9945219,39.132623,-172.3634)"
       id="use12690"
       xlink:href="#use12686"
       y="0"
       x="0" />
    <use
       height="100%"
       width="100%"
       transform="matrix(0.99487012,0.10116048,-0.10116048,0.99487012,18.463174,-0.6860274)"
       id="use17640"
       xlink:href="#g12246"
       y="0"
       x="0" />
    <use
       height="100%"
       width="100%"
       transform="matrix(0.99487012,0.10116048,-0.10116048,0.99487012,18.545526,-2.3041175)"
       id="use17642"
       xlink:href="#use17640"
       y="0"
       x="0" />
    <use
       height="100%"
       width="100%"
       transform="matrix(0.99487012,0.10116048,-0.10116048,0.99487012,18.627869,-3.9222415)"
       id="use17644"
       xlink:href="#use17642"
       y="0"
       x="0" />
    <use
       height="100%"
       width="100%"
       transform="matrix(0.99487012,0.10116048,-0.10116048,0.99487012,18.710256,-5.5403957)"
       id="use17646"
       xlink:href="#use17644"
       y="0"
       x="0" />
    <use
       height="100%"
       width="100%"
       transform="matrix(0.99487012,0.10116048,-0.10116048,0.99487012,18.792682,-7.1585849)"
       id="use17648"
       xlink:href="#use17646"
       y="0"
       x="0" />
    <use
       height="100%"
       width="100%"
       transform="matrix(0.99487012,0.10116048,-0.10116048,0.99487012,18.875146,-8.776813)"
       id="use17650"
       xlink:href="#use17648"
       y="0"
       x="0" />
    <use
       height="100%"
       width="100%"
       transform="matrix(0.99487012,0.10116048,-0.10116048,0.99487012,18.957642,-10.395084)"
       id="use17652"
       xlink:href="#use17650"
       y="0"
       x="0" />
    <use
       height="100%"
       width="100%"
       transform="matrix(0.99487012,0.10116048,-0.10116048,0.99487012,19.040166,-12.0134)"
       id="use17654"
       xlink:href="#use17652"
       y="0"
       x="0" />
    <use
       height="100%"
       width="100%"
       transform="matrix(0.99487012,0.10116048,-0.10116048,0.99487012,19.122713,-13.631765)"
       id="use17656"
       xlink:href="#use17654"
       y="0"
       x="0" />
    <use
       height="100%"
       width="100%"
       transform="matrix(0.99487012,0.10116048,-0.10116048,0.99487012,19.205279,-15.250181)"
       id="use17658"
       xlink:href="#use17656"
       y="0"
       x="0" />
    <use
       height="100%"
       width="100%"
       transform="matrix(0.99487012,0.10116048,-0.10116048,0.99487012,19.287857,-16.868648)"
       id="use17660"
       xlink:href="#use17658"
       y="0"
       x="0" />
    <use
       height="100%"
       width="100%"
       transform="matrix(0.99487012,0.10116048,-0.10116048,0.99487012,19.370295,-18.487328)"
       id="use17662"
       xlink:href="#use17660"
       y="0"
       x="0" />
    <use
       height="100%"
       width="100%"
       transform="matrix(0.99487012,0.10116048,-0.10116048,0.99487012,19.452449,-20.10785)"
       id="use17664"
       xlink:href="#use17662"
       y="0"
       x="0" />
    <use
       height="100%"
       width="100%"
       transform="matrix(0.99487012,0.10116048,-0.10116048,0.99487012,19.534518,-21.730599)"
       id="use17666"
       xlink:href="#use17664"
       y="0"
       x="0" />
    <use
       height="100%"
       width="100%"
       transform="matrix(0.99487012,0.10116048,-0.10116048,0.99487012,19.616047,-23.351029)"
       id="use17668"
       xlink:href="#use17666"
       y="0"
       x="0" />
    <use
       height="100%"
       width="100%"
       transform="matrix(-0.0505232,0.99872288,-0.99872288,-0.0505232,288.32996,17.191525)"
       id="use17670"
       xlink:href="#g12246"
       y="0"
       x="0" />
    <use
       height="100%"
       width="100%"
       transform="matrix(-0.0505232,0.99872288,-0.99872288,-0.0505232,305.13809,1.2121247)"
       id="use17672"
       xlink:href="#use17640"
       y="0"
       x="0" />
    <use
       height="100%"
       width="100%"
       transform="matrix(-0.0505232,0.99872288,-0.99872288,-0.0505232,321.94624,-14.767309)"
       id="use17674"
       xlink:href="#use17642"
       y="0"
       x="0" />
    <use
       height="100%"
       width="100%"
       transform="matrix(-0.0505232,0.99872288,-0.99872288,-0.0505232,338.75439,-30.746723)"
       id="use17676"
       xlink:href="#use17644"
       y="0"
       x="0" />
    <use
       height="100%"
       width="100%"
       transform="matrix(-0.0505232,0.99872288,-0.99872288,-0.0505232,355.56257,-46.726112)"
       id="use17678"
       xlink:href="#use17646"
       y="0"
       x="0" />
    <use
       height="100%"
       width="100%"
       transform="matrix(-0.0505232,0.99872288,-0.99872288,-0.0505232,372.37079,-62.705487)"
       id="use17680"
       xlink:href="#use17648"
       y="0"
       x="0" />
    <use
       height="100%"
       width="100%"
       transform="matrix(-0.0505232,0.99872288,-0.99872288,-0.0505232,389.179,-78.684846)"
       id="use17682"
       xlink:href="#use17650"
       y="0"
       x="0" />
    <use
       height="100%"
       width="100%"
       transform="matrix(-0.0505232,0.99872288,-0.99872288,-0.0505232,405.98726,-94.664188)"
       id="use17684"
       xlink:href="#use17652"
       y="0"
       x="0" />
    <use
       height="100%"
       width="100%"
       transform="matrix(-0.0505232,0.99872288,-0.99872288,-0.0505232,422.79551,-110.64352)"
       id="use17686"
       xlink:href="#use17654"
       y="0"
       x="0" />
    <use
       height="100%"
       width="100%"
       transform="matrix(-0.0505232,0.99872288,-0.99872288,-0.0505232,439.60382,-126.62284)"
       id="use17688"
       xlink:href="#use17656"
       y="0"
       x="0" />
    <use
       height="100%"
       width="100%"
       transform="matrix(-0.0505232,0.99872288,-0.99872288,-0.0505232,456.41215,-142.60217)"
       id="use17690"
       xlink:href="#use17658"
       y="0"
       x="0" />
    <use
       height="100%"
       width="100%"
       transform="matrix(-0.0505232,0.99872288,-0.99872288,-0.0505232,473.22049,-158.58145)"
       id="use17692"
       xlink:href="#use17660"
       y="0"
       x="0" />
    <use
       height="100%"
       width="100%"
       transform="matrix(-0.0505232,0.99872288,-0.99872288,-0.0505232,490.02954,-174.56102)"
       id="use17694"
       xlink:href="#use17662"
       y="0"
       x="0" />
    <use
       height="100%"
       width="100%"
       transform="matrix(-0.0505232,0.99872288,-0.99872288,-0.0505232,506.83972,-190.54059)"
       id="use17696"
       xlink:href="#use17664"
       y="0"
       x="0" />
    <use
       height="100%"
       width="100%"
       transform="matrix(-0.0505232,0.99872288,-0.99872288,-0.0505232,523.65101,-206.52033)"
       id="use17698"
       xlink:href="#use17666"
       y="0"
       x="0" />
    <use
       height="100%"
       width="100%"
       transform="matrix(-0.0505232,0.99872288,-0.99872288,-0.0505232,540.45771,-222.50042)"
       id="use17700"
       xlink:href="#use17668"
       y="0"
       x="0" />
    <g
       style="display:inline"
       id="g17702"
       transform="matrix(-0.29521867,7.2137245e-5,-7.2124844e-5,-0.29523807,-132.95323,452.47763)">
      <path
         transform="matrix(-0.16397381,0.61157081,-0.61162275,-0.16377992,-372.32298,1442.5061)"
         d="m -3.4436513,184.72075 a 22.98097,22.98097 0 0 1 -25.9046347,17.42496 22.98097,22.98097 0 0 1 -19.37345,-24.4816 22.98097,22.98097 0 0 1 22.91234,-21.20622"
         id="path17704"
         style="display:inline;fill:none;stroke:url(#radialGradient18026);stroke-width:17.83196449;stroke-linecap:round;stroke-miterlimit:4;stroke-dasharray:none;stroke-dashoffset:0;stroke-opacity:1" />
      <path
         style="display:inline;fill:none;stroke:url(#radialGradient18028);stroke-width:17.83196449;stroke-linecap:butt;stroke-miterlimit:4;stroke-dasharray:none;stroke-dashoffset:0;stroke-opacity:1"
         id="path17706"
         d="m -3.4436513,184.72075 a 22.98097,22.98097 0 0 1 -25.9046347,17.42496 22.98097,22.98097 0 0 1 -19.37345,-24.4816 22.98097,22.98097 0 0 1 22.91234,-21.20622"
         transform="matrix(-0.63300818,0.01438356,-0.01458424,-0.63300359,-491.4014,1510.996)" />
    </g>
    <use
       x="0"
       y="0"
       xlink:href="#g17702"
       id="use17708"
       transform="matrix(0.99487012,0.10116048,-0.10116048,0.99487012,20.081742,-0.6039496)"
       width="100%"
       height="100%" />
    <use
       x="0"
       y="0"
       xlink:href="#use17708"
       id="use17710"
       transform="matrix(0.99487012,0.10116048,-0.10116048,0.99487012,20.164094,-2.2220396)"
       width="100%"
       height="100%" />
    <use
       x="0"
       y="0"
       xlink:href="#use17710"
       id="use17712"
       transform="matrix(0.99487012,0.10116048,-0.10116048,0.99487012,20.246437,-3.8401636)"
       width="100%"
       height="100%" />
    <use
       x="0"
       y="0"
       xlink:href="#use17712"
       id="use17714"
       transform="matrix(0.99487012,0.10116048,-0.10116048,0.99487012,20.328824,-5.4583176)"
       width="100%"
       height="100%" />
    <use
       x="0"
       y="0"
       xlink:href="#use17714"
       id="use17716"
       transform="matrix(0.99487012,0.10116048,-0.10116048,0.99487012,20.41125,-7.0765066)"
       width="100%"
       height="100%" />
    <use
       x="0"
       y="0"
       xlink:href="#use17716"
       id="use17718"
       transform="matrix(0.99487012,0.10116048,-0.10116048,0.99487012,20.493714,-8.6947346)"
       width="100%"
       height="100%" />
    <use
       x="0"
       y="0"
       xlink:href="#use17718"
       id="use17720"
       transform="matrix(0.99487012,0.10116048,-0.10116048,0.99487012,20.57621,-10.313006)"
       width="100%"
       height="100%" />
    <use
       x="0"
       y="0"
       xlink:href="#use17720"
       id="use17722"
       transform="matrix(0.99487012,0.10116048,-0.10116048,0.99487012,20.658734,-11.931322)"
       width="100%"
       height="100%" />
    <use
       x="0"
       y="0"
       xlink:href="#use17722"
       id="use17724"
       transform="matrix(0.99487012,0.10116048,-0.10116048,0.99487012,20.741281,-13.549687)"
       width="100%"
       height="100%" />
    <use
       x="0"
       y="0"
       xlink:href="#use17724"
       id="use17726"
       transform="matrix(0.99487012,0.10116048,-0.10116048,0.99487012,20.823847,-15.168103)"
       width="100%"
       height="100%" />
    <use
       x="0"
       y="0"
       xlink:href="#use17726"
       id="use17728"
       transform="matrix(0.99487012,0.10116048,-0.10116048,0.99487012,20.906425,-16.78657)"
       width="100%"
       height="100%" />
    <use
       x="0"
       y="0"
       xlink:href="#use17728"
       id="use17730"
       transform="matrix(0.99487012,0.10116048,-0.10116048,0.99487012,20.988863,-18.40525)"
       width="100%"
       height="100%" />
    <use
       x="0"
       y="0"
       xlink:href="#use17730"
       id="use17732"
       transform="matrix(0.99487012,0.10116048,-0.10116048,0.99487012,21.071017,-20.025772)"
       width="100%"
       height="100%" />
    <use
       x="0"
       y="0"
       xlink:href="#use17732"
       id="use17734"
       transform="matrix(0.99487012,0.10116048,-0.10116048,0.99487012,21.153086,-21.648521)"
       width="100%"
       height="100%" />
    <use
       x="0"
       y="0"
       xlink:href="#use17734"
       id="use17736"
       transform="matrix(0.99487012,0.10116048,-0.10116048,0.99487012,21.234615,-23.268951)"
       width="100%"
       height="100%" />
    <use
       x="0"
       y="0"
       xlink:href="#g17702"
       id="use17738"
       transform="matrix(-0.0505232,0.99872288,-0.99872288,-0.0505232,304.30952,33.999897)"
       width="100%"
       height="100%" />
    <use
       x="0"
       y="0"
       xlink:href="#use17708"
       id="use17740"
       transform="matrix(-0.0505232,0.99872288,-0.99872288,-0.0505232,321.11765,18.020497)"
       width="100%"
       height="100%" />
    <use
       x="0"
       y="0"
       xlink:href="#use17710"
       id="use17742"
       transform="matrix(-0.0505232,0.99872288,-0.99872288,-0.0505232,337.9258,2.0410622)"
       width="100%"
       height="100%" />
    <use
       x="0"
       y="0"
       xlink:href="#use17712"
       id="use17744"
       transform="matrix(-0.0505232,0.99872288,-0.99872288,-0.0505232,354.73395,-13.938351)"
       width="100%"
       height="100%" />
    <use
       x="0"
       y="0"
       xlink:href="#use17714"
       id="use17746"
       transform="matrix(-0.0505232,0.99872288,-0.99872288,-0.0505232,371.54213,-29.91774)"
       width="100%"
       height="100%" />
    <use
       x="0"
       y="0"
       xlink:href="#use17716"
       id="use17748"
       transform="matrix(-0.0505232,0.99872288,-0.99872288,-0.0505232,388.35035,-45.897115)"
       width="100%"
       height="100%" />
    <use
       x="0"
       y="0"
       xlink:href="#use17718"
       id="use17750"
       transform="matrix(-0.0505232,0.99872288,-0.99872288,-0.0505232,405.15856,-61.876474)"
       width="100%"
       height="100%" />
    <use
       x="0"
       y="0"
       xlink:href="#use17720"
       id="use17752"
       transform="matrix(-0.0505232,0.99872288,-0.99872288,-0.0505232,421.96682,-77.855816)"
       width="100%"
       height="100%" />
    <use
       x="0"
       y="0"
       xlink:href="#use17722"
       id="use17754"
       transform="matrix(-0.0505232,0.99872288,-0.99872288,-0.0505232,438.77507,-93.835152)"
       width="100%"
       height="100%" />
    <use
       x="0"
       y="0"
       xlink:href="#use17724"
       id="use17756"
       transform="matrix(-0.0505232,0.99872288,-0.99872288,-0.0505232,455.58338,-109.81448)"
       width="100%"
       height="100%" />
    <use
       x="0"
       y="0"
       xlink:href="#use17726"
       id="use17758"
       transform="matrix(-0.0505232,0.99872288,-0.99872288,-0.0505232,472.39171,-125.79381)"
       width="100%"
       height="100%" />
    <use
       x="0"
       y="0"
       xlink:href="#use17728"
       id="use17760"
       transform="matrix(-0.0505232,0.99872288,-0.99872288,-0.0505232,489.20005,-141.77309)"
       width="100%"
       height="100%" />
    <use
       x="0"
       y="0"
       xlink:href="#use17730"
       id="use17762"
       transform="matrix(-0.0505232,0.99872288,-0.99872288,-0.0505232,506.0091,-157.75266)"
       width="100%"
       height="100%" />
    <use
       x="0"
       y="0"
       xlink:href="#use17732"
       id="use17764"
       transform="matrix(-0.0505232,0.99872288,-0.99872288,-0.0505232,522.81928,-173.73223)"
       width="100%"
       height="100%" />
    <use
       x="0"
       y="0"
       xlink:href="#use17734"
       id="use17766"
       transform="matrix(-0.0505232,0.99872288,-0.99872288,-0.0505232,539.63057,-189.71197)"
       width="100%"
       height="100%" />
    <use
       x="0"
       y="0"
       xlink:href="#use17736"
       id="use17768"
       transform="matrix(-0.0505232,0.99872288,-0.99872288,-0.0505232,556.43727,-205.69206)"
       width="100%"
       height="100%" />
  </g>
</svg>
