<?xml version="1.0" encoding="UTF-8" standalone="no"?>
<svg
   xmlns:dc="http://purl.org/dc/elements/1.1/"
   xmlns:cc="http://creativecommons.org/ns#"
   xmlns:rdf="http://www.w3.org/1999/02/22-rdf-syntax-ns#"
   xmlns:svg="http://www.w3.org/2000/svg"
   xmlns="http://www.w3.org/2000/svg"
   version="1.1"
   id="svg5995"
   viewBox="0 0 18 18"
   height="18"
   width="18">
  <defs
     id="defs5997" />
  <metadata
     id="metadata6000">
    <rdf:RDF>
      <cc:Work
         rdf:about="">
        <dc:format>image/svg+xml</dc:format>
        <dc:type
           rdf:resource="http://purl.org/dc/dcmitype/StillImage" />
        <dc:title />
      </cc:Work>
    </rdf:RDF>
  </metadata>
  <g
     transform="translate(0,-1034.3622)"
     id="layer1">
    <circle
       r="8.5"
       cy="1043.3622"
       cx="9"
       id="path4166"
       style="display:inline;opacity:1;fill:#f1ecdc;fill-opacity:1;stroke:#a6a49b;stroke-width:0.99999994;stroke-linecap:round;stroke-linejoin:miter;stroke-miterlimit:4;stroke-dasharray:none;stroke-dashoffset:0;stroke-opacity:1" />
    <g
       style="display:inline;fill:#91949c;fill-opacity:1"
       transform="translate(-19.06014,1044.3075)"
       id="g4201">
      <g
         transform="translate(-60,-518)"
         id="layer9"
         style="display:inline;fill:#91949c;fill-opacity:1" />
      <g
         style="fill:#91949c;fill-opacity:1"
         transform="translate(-60,-518)"
         id="layer10" />
      <g
         style="fill:#91949c;fill-opacity:1"
         transform="translate(-60,-518)"
         id="layer11" />
      <g
         style="fill:#91949c;fill-opacity:1"
         id="g2996"
         transform="matrix(0.75,0,0,0.75,22.062499,-6.9452236)">
        <g
           style="fill:#91949c;fill-opacity:1"
           id="layer12"
           transform="translate(-60,-518)">
          <g
             style="display:inline;fill:#91949c;fill-opacity:1"
             id="layer4-4-1"
             transform="translate(19,-242)">
            <path
               style="color:#657b83;font-style:normal;font-variant:normal;font-weight:normal;font-stretch:normal;font-size:medium;line-height:normal;font-family:'Andale Mono';-inkscape-font-specification:'Andale Mono';text-indent:0;text-align:start;text-decoration:none;text-decoration-line:none;letter-spacing:normal;word-spacing:normal;text-transform:none;direction:ltr;block-progression:tb;writing-mode:lr-tb;text-anchor:start;display:inline;overflow:visible;visibility:visible;fill:#91949c;fill-opacity:1;fill-rule:nonzero;stroke:none;stroke-width:1.78124988;marker:none;enable-background:new"
               id="path10839-9"
               d="m 45,764 1,0 c 0.01037,-1.2e-4 0.02079,-4.6e-4 0.03125,0 0.254951,0.0112 0.50987,0.12858 0.6875,0.3125 L 49,766.59375 51.3125,764.3125 C 51.578125,764.082 51.759172,764.007 52,764 l 1,0 0,1 c 0,0.28647 -0.03434,0.55065 -0.25,0.75 l -2.28125,2.28125 2.25,2.25 C 52.906938,770.46942 52.999992,770.7347 53,771 l 0,1 -1,0 c -0.265301,-10e-6 -0.530586,-0.0931 -0.71875,-0.28125 L 49,769.4375 46.71875,771.71875 C 46.530586,771.90694 46.26529,772 46,772 l -1,0 0,-1 c -3e-6,-0.26529 0.09306,-0.53058 0.28125,-0.71875 l 2.28125,-2.25 L 45.28125,765.75 C 45.070508,765.55537 44.97809,765.28075 45,765 l 0,-1 z" />
          </g>
        </g>
      </g>
      <g
         style="fill:#91949c;fill-opacity:1"
         transform="translate(-60,-518)"
         id="layer13" />
      <g
         style="fill:#91949c;fill-opacity:1"
         transform="translate(-60,-518)"
         id="layer14" />
      <g
         style="fill:#91949c;fill-opacity:1"
         transform="translate(-60,-518)"
         id="layer15" />
    </g>
  </g>
</svg>
