<?xml version="1.0" encoding="UTF-8" standalone="no"?>
<svg
   xmlns:dc="http://purl.org/dc/elements/1.1/"
   xmlns:cc="http://creativecommons.org/ns#"
   xmlns:rdf="http://www.w3.org/1999/02/22-rdf-syntax-ns#"
   xmlns:svg="http://www.w3.org/2000/svg"
   xmlns="http://www.w3.org/2000/svg"
   width="16"
   version="1.1"
   id="svg7384"
   height="16">
  <metadata
     id="metadata90">
    <rdf:RDF>
      <cc:Work
         rdf:about="">
        <dc:format>image/svg+xml</dc:format>
        <dc:type
           rdf:resource="http://purl.org/dc/dcmitype/StillImage" />
        <dc:title>Gnome Symbolic Icon Theme</dc:title>
      </cc:Work>
    </rdf:RDF>
  </metadata>
  <title
     id="title9167">Gnome Symbolic Icon Theme</title>
  <defs
     id="defs7386" />
  <g
     transform="translate(-321.0002,-747)"
     style="display:inline"
     id="layer9" />
  <g
     transform="translate(-321.0002,-747)"
     id="layer10" />
  <g
     transform="translate(-321.0002,-747)"
     id="layer11" />
  <g
     transform="translate(-321.0002,-747)"
     id="layer13" />
  <g
     transform="translate(-321.0002,-747)"
     id="layer14" />
  <g
     transform="translate(-321.0002,-747)"
     style="display:inline"
     id="layer15" />
  <g
     transform="translate(-321.0002,-747)"
     style="display:inline"
     id="g71291" />
  <g
     transform="translate(-321.0002,-747)"
     style="display:inline"
     id="g4953" />
  <g
     transform="translate(-321.0002,-747)"
     style="display:inline"
     id="layer12">
    <path
       style="font-size:medium;font-style:normal;font-variant:normal;font-weight:normal;font-stretch:normal;text-indent:0;text-align:start;text-decoration:none;line-height:normal;letter-spacing:normal;word-spacing:normal;text-transform:none;direction:ltr;block-progression:tb;writing-mode:lr-tb;text-anchor:start;baseline-shift:baseline;color:#000000;fill:#a1a1a1;fill-opacity:1;stroke:none;stroke-width:2;marker:none;visibility:visible;display:inline;overflow:visible;enable-background:accumulate;font-family:Sans;-inkscape-font-specification:Sans"
       id="path8460"
       d="m 325.78125,749 a 1.0001,1.0001 0 0 0 -0.5,1.71875 L 329.5625,755 l -4.28125,4.28125 a 1.016466,1.016466 0 1 0 1.4375,1.4375 l 5,-5 0.6875,-0.71875 -0.6875,-0.71875 -5,-5 A 1.0001,1.0001 0 0 0 325.78125,749 z" />
    <rect
       y="749"
       x="-326.00021"
       width="1"
       transform="scale(-1,1)"
       style="fill:#a1a1a1;fill-opacity:1;stroke:none"
       ry="1"
       rx="0"
       id="rect8464"
       height="1" />
    <rect
       y="760"
       x="-326.00021"
       width="1"
       transform="scale(-1,1)"
       style="fill:#a1a1a1;fill-opacity:1;stroke:none"
       ry="1"
       rx="0"
       id="rect8468"
       height="1" />
  </g>
</svg>
