<?xml version="1.0" encoding="UTF-8" standalone="no"?>
<svg
   xmlns:osb="http://www.openswatchbook.org/uri/2009/osb"
   xmlns:dc="http://purl.org/dc/elements/1.1/"
   xmlns:cc="http://creativecommons.org/ns#"
   xmlns:rdf="http://www.w3.org/1999/02/22-rdf-syntax-ns#"
   xmlns:svg="http://www.w3.org/2000/svg"
   xmlns="http://www.w3.org/2000/svg"
   xmlns:xlink="http://www.w3.org/1999/xlink"
   width="16"
   version="1.1"
   id="svg7384"
   height="16">
  <metadata
     id="metadata90">
    <rdf:RDF>
      <cc:Work
         rdf:about="">
        <dc:format>image/svg+xml</dc:format>
        <dc:type
           rdf:resource="http://purl.org/dc/dcmitype/StillImage" />
        <dc:title>Gnome Symbolic Icon Theme</dc:title>
      </cc:Work>
    </rdf:RDF>
  </metadata>
  <title
     id="title9167">Gnome Symbolic Icon Theme</title>
  <defs
     id="defs7386">
    <linearGradient
       osb:paint="solid"
       id="selected_bg_color">
      <stop
         id="stop4149"
         offset="0"
         style="stop-color:#268bd2;stop-opacity:1;" />
    </linearGradient>
    <linearGradient
       gradientTransform="translate(-100.0002,-747)"
       gradientUnits="userSpaceOnUse"
       y2="761.01651"
       x2="108.31551"
       y1="748.98676"
       x1="108.31551"
       id="linearGradient4151"
       xlink:href="#selected_bg_color" />
  </defs>
  <g
     transform="translate(-100.0002,-747)"
     style="display:inline"
     id="layer9" />
  <g
     transform="translate(-100.0002,-747)"
     id="layer10" />
  <g
     transform="translate(-100.0002,-747)"
     id="layer11" />
  <g
     transform="translate(-100.0002,-747)"
     id="layer13" />
  <g
     transform="translate(-100.0002,-747)"
     id="layer14" />
  <g
     transform="translate(-100.0002,-747)"
     style="display:inline"
     id="layer15" />
  <g
     transform="translate(-100.0002,-747)"
     style="display:inline"
     id="g71291" />
  <g
     transform="translate(-100.0002,-747)"
     style="display:inline"
     id="g4953" />
  <g
     transform="translate(-100.0002,-747)"
     style="display:inline"
     id="layer12">
    <path
       id="path6040"
       transform="translate(100.0002,747)"
       d="M 11.029297 1.9863281 A 1.0001 1.0001 0 0 0 10.875 2 A 1.0001 1.0001 0 0 0 10.28125 2.28125 L 5.28125 7.28125 L 4.59375 8 L 5.28125 8.71875 L 10.28125 13.71875 A 1.016466 1.016466 0 0 0 11.320312 13.964844 C 11.376215 13.986347 11.436343 14 11.5 14 C 11.777 14 12 13.777 12 13.5 C 12 13.436343 11.986347 13.376215 11.964844 13.320312 A 1.016466 1.016466 0 0 0 11.71875 12.28125 L 7.4375 8 L 11.71875 3.71875 A 1.0001 1.0001 0 0 0 11.972656 2.6347656 C 11.985073 2.5910427 12 2.5478091 12 2.5 C 12 2.223 11.777 2 11.5 2 C 11.441137 2 11.386348 2.0146851 11.333984 2.0332031 A 1.0001 1.0001 0 0 0 11.029297 1.9863281 z "
       style="font-size:medium;font-style:normal;font-variant:normal;font-weight:normal;font-stretch:normal;text-indent:0;text-align:start;text-decoration:none;line-height:normal;letter-spacing:normal;word-spacing:normal;text-transform:none;direction:ltr;block-progression:tb;writing-mode:lr-tb;text-anchor:start;baseline-shift:baseline;color:#000000;fill:url(#linearGradient4151);fill-opacity:1;stroke:none;stroke-width:2;marker:none;visibility:visible;display:inline;overflow:visible;enable-background:accumulate;font-family:Sans;-inkscape-font-specification:Sans" />
  </g>
</svg>
