<?xml version="1.0" encoding="UTF-8" standalone="no"?>
<svg
   xmlns:osb="http://www.openswatchbook.org/uri/2009/osb"
   xmlns:dc="http://purl.org/dc/elements/1.1/"
   xmlns:cc="http://creativecommons.org/ns#"
   xmlns:rdf="http://www.w3.org/1999/02/22-rdf-syntax-ns#"
   xmlns:svg="http://www.w3.org/2000/svg"
   xmlns="http://www.w3.org/2000/svg"
   xmlns:xlink="http://www.w3.org/1999/xlink"
   width="16"
   version="1.1"
   id="svg7384"
   height="16">
  <metadata
     id="metadata90">
    <rdf:RDF>
      <cc:Work
         rdf:about="">
        <dc:format>image/svg+xml</dc:format>
        <dc:type
           rdf:resource="http://purl.org/dc/dcmitype/StillImage" />
        <dc:title>Gnome Symbolic Icon Theme</dc:title>
      </cc:Work>
    </rdf:RDF>
  </metadata>
  <title
     id="title9167">Gnome Symbolic Icon Theme</title>
  <defs
     id="defs7386">
    <linearGradient
       osb:paint="solid"
       id="selected_bg_color">
      <stop
         id="stop4149"
         offset="0"
         style="stop-color:#268bd2;stop-opacity:1;" />
    </linearGradient>
    <linearGradient
       gradientTransform="translate(-321.0002,-747)"
       gradientUnits="userSpaceOnUse"
       y2="761.01651"
       x2="328.68296"
       y1="748.97592"
       x1="328.68296"
       id="linearGradient4151"
       xlink:href="#selected_bg_color" />
  </defs>
  <g
     transform="translate(-321.0002,-747)"
     style="display:inline"
     id="layer9" />
  <g
     transform="translate(-321.0002,-747)"
     id="layer10" />
  <g
     transform="translate(-321.0002,-747)"
     id="layer11" />
  <g
     transform="translate(-321.0002,-747)"
     id="layer13" />
  <g
     transform="translate(-321.0002,-747)"
     id="layer14" />
  <g
     transform="translate(-321.0002,-747)"
     style="display:inline"
     id="layer15" />
  <g
     transform="translate(-321.0002,-747)"
     style="display:inline"
     id="g71291" />
  <g
     transform="translate(-321.0002,-747)"
     style="display:inline"
     id="g4953" />
  <g
     transform="translate(-321.0002,-747)"
     style="display:inline"
     id="layer12">
    <path
       id="path8460"
       transform="translate(321.0002,747)"
       d="M 5.0019531 1.9765625 A 1.0001 1.0001 0 0 0 4.78125 2 A 1.0001 1.0001 0 0 0 4.6582031 2.03125 C 4.6079631 2.0143799 4.5560659 2 4.5 2 C 4.223 2 4 2.223 4 2.5 C 4 2.5456784 4.0140203 2.5869226 4.0253906 2.6289062 A 1.0001 1.0001 0 0 0 4.28125 3.71875 L 8.5625 8 L 4.28125 12.28125 A 1.016466 1.016466 0 0 0 4.0351562 13.320312 C 4.0136534 13.376215 4 13.436343 4 13.5 C 4 13.777 4.223 14 4.5 14 C 4.5636567 14 4.6237855 13.986347 4.6796875 13.964844 A 1.016466 1.016466 0 0 0 5.71875 13.71875 L 10.71875 8.71875 L 11.40625 8 L 10.71875 7.28125 L 5.71875 2.28125 A 1.0001 1.0001 0 0 0 5.0019531 1.9765625 z "
       style="font-size:medium;font-style:normal;font-variant:normal;font-weight:normal;font-stretch:normal;text-indent:0;text-align:start;text-decoration:none;line-height:normal;letter-spacing:normal;word-spacing:normal;text-transform:none;direction:ltr;block-progression:tb;writing-mode:lr-tb;text-anchor:start;baseline-shift:baseline;color:#000000;fill:url(#linearGradient4151);fill-opacity:1;stroke:none;stroke-width:2;marker:none;visibility:visible;display:inline;overflow:visible;enable-background:accumulate;font-family:Sans;-inkscape-font-specification:Sans" />
  </g>
</svg>
