<?xml version="1.0" encoding="UTF-8" standalone="no"?>
<svg
   xmlns:dc="http://purl.org/dc/elements/1.1/"
   xmlns:cc="http://creativecommons.org/ns#"
   xmlns:rdf="http://www.w3.org/1999/02/22-rdf-syntax-ns#"
   xmlns:svg="http://www.w3.org/2000/svg"
   xmlns="http://www.w3.org/2000/svg"
   style="enable-background:new"
   version="1.1"
   id="svg4306"
   height="24"
   width="24">
  <defs
     id="defs4308" />
  <metadata
     id="metadata4311">
    <rdf:RDF>
      <cc:Work
         rdf:about="">
        <dc:format>image/svg+xml</dc:format>
        <dc:type
           rdf:resource="http://purl.org/dc/dcmitype/StillImage" />
        <dc:title />
      </cc:Work>
    </rdf:RDF>
  </metadata>
  <g
     transform="translate(0,-1028.3622)"
     id="layer1">
    <g
       transform="translate(-437.00001,1218)"
       id="titlebutton-close-active-dark"
       style="display:inline">
      <g
         transform="translate(-882,-432.63782)"
         style="display:inline;opacity:1"
         id="g4927-8-7-4-9">
        <g
           id="g4490-6-3-7-46-6"
           style="display:inline;opacity:1"
           transform="translate(-103,0)">
          <g
             transform="translate(58,0)"
             style="display:inline"
             id="g4092-0-2-2-1-7-2">
            <path
               id="path4068-7-5-4-9-7-6"
               transform="translate(962.00001,139.00001)"
               d="m 414,109 a 7,7 0 0 0 -7,7 7,7 0 0 0 7,7 7,7 0 0 0 7,-7 7,7 0 0 0 -7,-7 z m -3,3.92188 0.75,0 c 0.008,-1e-4 0.0156,-3.5e-4 0.0234,0 0.19121,0.008 0.3824,0.0964 0.51562,0.23437 l 1.71094,1.71094 1.73438,-1.71094 c 0.19921,-0.17287 0.335,-0.22913 0.51562,-0.23437 l 0.75,0 0,0.75 c 0,0.21485 -0.0258,0.41298 -0.1875,0.5625 l -1.71094,1.71093 1.6875,1.6875 c 0.14114,0.14113 0.21093,0.34009 0.21094,0.53907 l 0,0.75 -0.75,0 c -0.19898,-1e-5 -0.39794,-0.0698 -0.53906,-0.21094 L 414,117 l -1.71094,1.71094 c -0.14112,0.14114 -0.34009,0.21094 -0.53906,0.21094 l -0.75,0 0,-0.75 c 0,-0.19897 0.0698,-0.39794 0.21094,-0.53907 l 1.71094,-1.6875 -1.71094,-1.71093 c -0.15806,-0.14598 -0.22737,-0.35194 -0.21094,-0.5625 l 0,-0.75 z"
               style="fill:#dc322f;fill-opacity:1;stroke:none;stroke-width:0;stroke-linecap:butt;stroke-linejoin:miter;stroke-miterlimit:4;stroke-dasharray:none;stroke-dashoffset:0;stroke-opacity:1" />
          </g>
        </g>
        <g
           style="fill:#fdf6e3;fill-opacity:1"
           transform="translate(1323,246.86719)"
           id="g4778-3-6-0-5">
          <g
             transform="translate(-60,-518)"
             id="layer9-9-6-0-90-6"
             style="display:inline;fill:#fdf6e3;fill-opacity:1" />
          <g
             style="fill:#fdf6e3;fill-opacity:1"
             transform="translate(-60,-518)"
             id="layer10-2-3-6-6-1" />
          <g
             style="fill:#fdf6e3;fill-opacity:1"
             transform="translate(-60,-518)"
             id="layer11-16-2-2-6-9" />
          <g
             style="fill:#fdf6e3;fill-opacity:1"
             id="g2996-7-0-2-0"
             transform="matrix(0.75,0,0,0.75,2,2.0546875)">
            <g
               style="fill:#fdf6e3;fill-opacity:1"
               id="layer12-4-6-3-5-2"
               transform="translate(-60,-518)">
              <g
                 style="display:inline;fill:#fdf6e3;fill-opacity:1"
                 id="layer4-4-1-4-1-7-0"
                 transform="translate(19,-242)" />
            </g>
          </g>
          <g
             style="fill:#fdf6e3;fill-opacity:1"
             transform="translate(-60,-518)"
             id="layer13-2-0-2-8-3" />
          <g
             style="fill:#fdf6e3;fill-opacity:1"
             transform="translate(-60,-518)"
             id="layer14-4-4-0-5-8" />
          <g
             style="fill:#fdf6e3;fill-opacity:1"
             transform="translate(-60,-518)"
             id="layer15-7-5-0-0-9" />
        </g>
      </g>
      <rect
         style="display:inline;opacity:1;fill:none;fill-opacity:1;stroke:none;stroke-width:1;stroke-linecap:butt;stroke-linejoin:miter;stroke-miterlimit:4;stroke-dasharray:none;stroke-dashoffset:0;stroke-opacity:0"
         id="rect17883-02-4-3"
         width="16"
         height="16"
         x="441"
         y="-185.63782" />
    </g>
  </g>
</svg>
