<?xml version="1.0" encoding="UTF-8" standalone="no"?>
<svg
   xmlns:dc="http://purl.org/dc/elements/1.1/"
   xmlns:cc="http://creativecommons.org/ns#"
   xmlns:rdf="http://www.w3.org/1999/02/22-rdf-syntax-ns#"
   xmlns:svg="http://www.w3.org/2000/svg"
   xmlns="http://www.w3.org/2000/svg"
   style="enable-background:new"
   version="1.1"
   id="svg4306"
   height="24"
   width="24">
  <defs
     id="defs4308" />
  <metadata
     id="metadata4311">
    <rdf:RDF>
      <cc:Work
         rdf:about="">
        <dc:format>image/svg+xml</dc:format>
        <dc:type
           rdf:resource="http://purl.org/dc/dcmitype/StillImage" />
        <dc:title />
      </cc:Work>
    </rdf:RDF>
  </metadata>
  <g
     transform="translate(0,-1028.3622)"
     id="layer1">
    <g
       transform="translate(-641.00002,1218)"
       id="titlebutton-close-backdrop-dark"
       style="display:inline;opacity:0.4">
      <g
         transform="translate(-678,-432.63782)"
         style="display:inline;opacity:1"
         id="g4927-9-2-8-0">
        <g
           id="g4490-6-5-2-5-3-3"
           style="display:inline;opacity:1"
           transform="translate(-103,0)">
          <g
             transform="translate(58,0)"
             style="display:inline"
             id="g4092-0-2-21-0-9-7-0">
            <path
               id="path4068-7-5-9-6-5-8-3"
               transform="translate(962.00001,190.00002)"
               d="m 414,58 a 7,7 0 0 0 -7,7 7,7 0 0 0 7,7 7,7 0 0 0 7,-7 7,7 0 0 0 -7,-7 z m -3,3.921875 0.75,0 c 0.008,-9e-5 0.0156,-3.45e-4 0.0234,0 0.19121,0.0084 0.3824,0.09643 0.51562,0.234375 L 414,63.867188 415.73438,62.15625 c 0.19921,-0.172875 0.335,-0.229125 0.51562,-0.234375 l 0.75,0 0,0.75 c 0,0.214853 -0.0258,0.412987 -0.1875,0.5625 l -1.71094,1.710937 1.6875,1.6875 C 416.9302,66.77394 416.99999,66.9729 417,67.171875 l 0,0.75 -0.75,0 c -0.19898,-8e-6 -0.39794,-0.06982 -0.53906,-0.210937 L 414,66 l -1.71094,1.710938 c -0.14112,0.141142 -0.34009,0.210937 -0.53906,0.210937 l -0.75,0 0,-0.75 c 0,-0.198967 0.0698,-0.397935 0.21094,-0.539063 l 1.71094,-1.6875 -1.71094,-1.710937 C 411.05288,63.088403 410.98357,62.882438 411,62.671875 l 0,-0.75 z"
               style="fill:#b9bcc2;fill-opacity:1;stroke:none;stroke-width:0;stroke-linecap:butt;stroke-linejoin:miter;stroke-miterlimit:4;stroke-dasharray:none;stroke-dashoffset:0;stroke-opacity:1" />
          </g>
        </g>
        <g
           style="fill:#fdf6e3;fill-opacity:1"
           transform="translate(1323,246.86719)"
           id="g4778-2-68-8-7-6">
          <g
             transform="translate(-60,-518)"
             id="layer9-9-4-4-1-1-0"
             style="display:inline;fill:#fdf6e3;fill-opacity:1" />
          <g
             style="fill:#fdf6e3;fill-opacity:1"
             transform="translate(-60,-518)"
             id="layer10-2-1-8-0-4-0" />
          <g
             style="fill:#fdf6e3;fill-opacity:1"
             transform="translate(-60,-518)"
             id="layer11-16-4-9-6-9-6" />
          <g
             style="fill:#fdf6e3;fill-opacity:1"
             id="g2996-76-5-96-3-0"
             transform="matrix(0.75,0,0,0.75,2,2.0546875)">
            <g
               style="fill:#fdf6e3;fill-opacity:1"
               id="layer12-4-5-7-9-4-0"
               transform="translate(-60,-518)">
              <g
                 style="display:inline;fill:#fdf6e3;fill-opacity:1"
                 id="layer4-4-1-9-5-6-3-3"
                 transform="translate(19,-242)" />
            </g>
          </g>
          <g
             style="fill:#fdf6e3;fill-opacity:1"
             transform="translate(-60,-518)"
             id="layer13-2-6-11-3-1-8" />
          <g
             style="fill:#fdf6e3;fill-opacity:1"
             transform="translate(-60,-518)"
             id="layer14-4-0-33-2-4-4" />
          <g
             style="fill:#fdf6e3;fill-opacity:1"
             transform="translate(-60,-518)"
             id="layer15-7-3-0-6-6-6" />
        </g>
      </g>
      <rect
         style="display:inline;opacity:1;fill:none;fill-opacity:1;stroke:none;stroke-width:1;stroke-linecap:butt;stroke-linejoin:miter;stroke-miterlimit:4;stroke-dasharray:none;stroke-dashoffset:0;stroke-opacity:0"
         id="rect17883-39-99-8-6"
         width="16"
         height="16"
         x="645"
         y="-185.63782" />
    </g>
  </g>
</svg>
