<?xml version="1.0" encoding="UTF-8" standalone="no"?>
<svg
   xmlns:dc="http://purl.org/dc/elements/1.1/"
   xmlns:cc="http://creativecommons.org/ns#"
   xmlns:rdf="http://www.w3.org/1999/02/22-rdf-syntax-ns#"
   xmlns:svg="http://www.w3.org/2000/svg"
   xmlns="http://www.w3.org/2000/svg"
   style="enable-background:new"
   version="1.1"
   id="svg4306"
   height="24"
   width="24">
  <defs
     id="defs4308" />
  <metadata
     id="metadata4311">
    <rdf:RDF>
      <cc:Work
         rdf:about="">
        <dc:format>image/svg+xml</dc:format>
        <dc:type
           rdf:resource="http://purl.org/dc/dcmitype/StillImage" />
        <dc:title />
      </cc:Work>
    </rdf:RDF>
  </metadata>
  <g
     transform="translate(0,-1028.3622)"
     id="layer1">
    <g
       transform="translate(-509,1218)"
       id="titlebutton-max-hover-dark"
       style="display:inline">
      <g
         transform="translate(-781,-432.63782)"
         style="display:inline;opacity:1"
         id="g4891-5-8">
        <ellipse
           ry="6.0000005"
           rx="6"
           id="path4068-7-5-9-6-7-2-4-6-6"
           style="display:inline;opacity:0.45;fill:#5f697f;fill-opacity:1;stroke:none;stroke-width:0;stroke-linecap:butt;stroke-linejoin:miter;stroke-miterlimit:4;stroke-dasharray:none;stroke-dashoffset:0;stroke-opacity:1"
           cx="1302"
           cy="255" />
        <path
           id="path4068-7-5-9-6-7-2-5-78-2-6"
           d="m 1302,248 a 7,7 0 0 0 -7,7 7,7 0 0 0 7,7 7,7 0 0 0 7,-7 7,7 0 0 0 -7,-7 z m 0,1 a 6,6 0 0 1 6,6 6,6 0 0 1 -6,6 6,6 0 0 1 -6,-6 6,6 0 0 1 6,-6 z"
           style="display:inline;opacity:0.37000002;fill:#15171c;fill-opacity:1;stroke:none;stroke-width:0;stroke-linecap:butt;stroke-linejoin:miter;stroke-miterlimit:4;stroke-dasharray:none;stroke-dashoffset:0;stroke-opacity:1" />
        <g
           style="fill:#c0e3ff;fill-opacity:1"
           transform="translate(1294,247)"
           id="g4806-9-0-6">
          <g
             id="layer9-78-7-6-6"
             style="display:inline;fill:#c0e3ff;fill-opacity:1"
             transform="translate(-81.0002,-967)" />
          <g
             style="fill:#c0e3ff;fill-opacity:1"
             id="layer10-3-3-2-7"
             transform="translate(-81.0002,-967)" />
          <g
             style="fill:#c0e3ff;fill-opacity:1"
             id="layer11-19-75-1-2"
             transform="translate(-81.0002,-967)" />
          <g
             style="fill:#c0e3ff;fill-opacity:1"
             id="layer13-4-9-2-3"
             transform="translate(-81.0002,-967)" />
          <g
             style="fill:#c0e3ff;fill-opacity:1"
             id="layer14-8-5-0-4"
             transform="translate(-81.0002,-967)" />
          <g
             id="layer15-5-8-0-4"
             style="display:inline;fill:#c0e3ff;fill-opacity:1"
             transform="translate(-81.0002,-967)" />
          <g
             id="g71291-1-7-5-9"
             style="display:inline;fill:#c0e3ff;fill-opacity:1"
             transform="translate(-81.0002,-967)" />
          <g
             id="g4953-7-1-4-1"
             style="display:inline;fill:#c0e3ff;fill-opacity:1"
             transform="translate(-81.0002,-967)" />
          <g
             id="layer12-3-0-0-6"
             style="display:inline;fill:#c0e3ff;fill-opacity:1"
             transform="translate(-81.0002,-967)">
            <path
               id="path4293-6-7-1"
               style="opacity:1;fill:#93a1a1;fill-opacity:1;fill-rule:evenodd;stroke:none"
               d="m 87.799705,972 3.381737,0 c 0.450297,0 0.816227,0.36847 0.818758,0.8188 l 0,3.3817 z m 2.407413,6.00692 -3.395078,0 c -0.450346,0 -0.818758,-0.36842 -0.818758,-0.81875 l 0,-3.39509 4.213836,4.21384" />
          </g>
        </g>
      </g>
      <rect
         style="display:inline;opacity:1;fill:none;fill-opacity:1;stroke:none;stroke-width:1;stroke-linecap:butt;stroke-linejoin:miter;stroke-miterlimit:4;stroke-dasharray:none;stroke-dashoffset:0;stroke-opacity:0"
         id="rect17883-0-1-5"
         width="16"
         height="16"
         x="513"
         y="-185.63782" />
    </g>
  </g>
</svg>
